<svg xmlns="http://www.w3.org/2000/svg" viewBox="0 0 24 24" class="FavoriteButton-module__icon___mapxf">
    <path fill="none" d="M0 0h24v24H0z"></path>
    <path
        d="M12 20.892C10.459 19.797 3 14.15 3 7.5 3 5.019 5.019 3 7.5 3c1.672 0 3.261 1.066 4.049 2.716.166.347.736.347.902 0C13.239 4.066 14.828 3 16.5 3 18.981 3 21 5.019 21 7.5c0 6.644-7.461 12.296-9 13.392M16.5 2c-1.77 0-3.457.957-4.5 2.497C10.957 2.957 9.27 2 7.5 2A5.506 5.506 0 002 7.5c0 7.91 9.328 14.156 9.725 14.417a.49.49 0 00.55 0C12.672 21.656 22 15.41 22 7.5 22 4.468 19.532 2 16.5 2"
        fill="currentColor"></path>
</svg>