<svg viewBox="0 0 24 24" class="ic_m_pickup_svg__rtlIcon" xmlns="http://www.w3.org/2000/svg">
    <path fill="none" d="M0 0h24v24H0z"></path>
    <path
        d="M12.975 7.633l-1.947 5.704a.497.497 0 00.061.447l5.8 8.402a.499.499 0 11-.782.621l-7.002-9.002a.494.494 0 01-.107-.345l.987-3.836a.5.5 0 00-.639-.6l-2.183.71a.502.502 0 00-.32.317l-.869 2.607a.494.494 0 01-.632.316.49.49 0 01-.289-.25.493.493 0 01-.026-.382l1-3.001a.499.499 0 01.25-.289l4.002-2A.48.48 0 0110.5 7h2a.5.5 0 01.5.5c0 .03-.008.075-.025.133m5.867 4.196a1.449 1.449 0 00-.818-.734l-2.038-.924a.496.496 0 01-.219-.194l-1.945-3.185c-.005-.008-.013-.012-.017-.019A1.496 1.496 0 0012.5 6h-2c-.235 0-.46.053-.67.158l-4 2a1.494 1.494 0 00-.752.868l-.999 2.999c-.128.379-.1.786.08 1.145.178.359.487.627.868.753a1.515 1.515 0 001.896-.949l.79-2.367 1.077-.35-.769 2.996a1.5 1.5 0 00.296 1.168l1.644 2.114-.805 2.417c-.065.194-.166.37-.303.522L5.9 22.8a.51.51 0 01-.7.1.499.499 0 01-.114-.683l2.8-3.399a.499.499 0 10-.77-.636L4.3 21.6A1.503 1.503 0 005.5 24c.477 0 .914-.219 1.174-.568L9.6 20.139a2.47 2.47 0 00.505-.871l.595-1.784 4.617 5.937c.285.368.717.579 1.184.579.335 0 .654-.109.92-.316.317-.246.518-.6.568-.998a1.486 1.486 0 00-.294-1.092l-5.64-8.17 1.672-4.868 1.185 1.941c.157.258.386.461.661.585l2.086.944a.486.486 0 01.29.25c.06.121.068.253.025.382-.079.24-.22.342-.47.342-.28-.012-1.68-.51-2.818-.965a.5.5 0 00-.37.929C15.092 13.276 16.961 14 17.5 14c.678 0 1.21-.385 1.422-1.025.128-.38.1-.787-.08-1.146M12.5 1a1.501 1.501 0 010 3c-.827 0-1.5-.673-1.5-1.5S11.673 1 12.5 1m0 4C13.88 5 15 3.878 15 2.5 15 1.121 13.88 0 12.5 0A2.502 2.502 0 0010 2.5C10 3.878 11.121 5 12.5 5"
        fill="#currentColor"></path>
</svg>