<svg viewBox="0 0 24 24" class="LocationButton__icon">
    <path fill-rule="evenodd" clip-rule="evenodd"
        d="M10.5 19.5C9.871 19.5 9.309 19.107 9.093 18.516C8.876 17.926 9.051 17.263 9.53 16.855L11.823 14.915C11.936 14.82 12 14.68 12 14.533V6.3C12 5.935 11.802 5.599 11.481 5.423L10.509 4.888C10.349 4.8 10.25 4.632 10.25 4.45V1C10.25 0.448 9.802 0 9.25 0C8.697 0 8.25 0.448 8.25 1V2.8C8.25 2.977 8.156 3.14 8.004 3.23C7.852 3.32 7.663 3.323 7.509 3.238L1.92 0.161C1.518 -0.057 1.03 -0.048 0.637 0.186C0.242 0.419 0.001 0.842 0 1.3V5C0 5.276 0.224 5.5 0.5 5.5H4.25C4.664 5.5 5 5.836 5 6.25C5 6.664 4.664 7 4.25 7H0.5C0.224 7 0 7.224 0 7.5V8.5C0 8.776 0.224 9 0.5 9H5.25C5.664 9 6 9.336 6 9.75C6 10.164 5.664 10.5 5.25 10.5H0.5C0.224 10.5 0 10.724 0 11V12C0 12.276 0.224 12.5 0.5 12.5H7.25C7.664 12.5 8 12.836 8 13.25C8 13.664 7.664 14 7.25 14H0.5C0.224 14 0 14.224 0 14.5V23.5C0 23.776 0.224 24 0.5 24H3.5C3.775 24 4 23.776 4 23.5V20.5C4 19.948 4.447 19.5 5 19.5H7C7.552 19.5 8 19.948 8 20.5V23.5C8 23.776 8.224 24 8.5 24H10.5C10.775 24 11 23.776 11 23.5V20C11 19.724 10.775 19.5 10.5 19.5ZM23.9697 18.1722C23.8967 18.3692 23.7097 18.5002 23.4998 18.5002H22.5C22.224 18.5002 22 18.7242 22 19.0002V23.5C22 23.776 21.7751 24 21.5001 24H19.0006C18.7246 24 18.5007 23.776 18.5007 23.5V21.2501C18.5007 20.4221 17.8288 19.7502 17.0009 19.7502C16.1721 19.7502 15.5012 20.4221 15.5012 21.2501V23.5C15.5012 23.776 15.2762 24 15.0013 24H12.5007C12.2247 24 12.0008 23.776 12.0008 23.5V19.0002C12.0008 18.7242 11.7758 18.5002 11.5009 18.5002H10.5011C10.2911 18.5002 10.1031 18.3692 10.0301 18.1722C9.95815 17.9753 10.0181 17.7533 10.1781 17.6183L16.677 12.1185C16.8629 11.9605 17.1369 11.9605 17.3229 12.1185L23.8217 17.6183C23.9827 17.7533 24.0417 17.9753 23.9697 18.1722Z">
    </path>
</svg>